<svg xmlns="http://www.w3.org/2000/svg" width="212" height="41" fill="none"><g clip-path="url(#a)"><mask id="b" width="212" height="41" x="0" y="0" maskUnits="userSpaceOnUse" style="mask-type:luminance"><path fill="#fff" d="M212 0H0v41h212V0Z"/></mask><g mask="url(#b)"><path fill="#00234A" d="M15.278 16.58h-3.994v6.734h3.994c2.497 0 3.695-1.608 3.695-3.317 0-1.808-1.198-3.416-3.695-3.416Z"/></g><mask id="c" width="212" height="41" x="0" y="0" maskUnits="userSpaceOnUse" style="mask-type:luminance"><path fill="#fff" d="M212 0H0v41h212V0Z"/></mask><g mask="url(#c)"><path fill="#00234A" d="M56.92 6.532a5.952 5.952 0 0 1-5.493 3.617c-2.396 0-4.493-1.507-5.392-3.617H0V41h60.414V6.532H56.92Zm-37.448 28.64-4.493-7.839h-3.695v7.839H6.691V12.36h7.988c5.592 0 8.888 3.015 8.888 7.637 0 3.116-1.498 5.427-4.294 6.532l5.192 8.643h-4.993Zm25.165 0H28.36V12.36h16.077v4.22H32.853v4.824h9.088v4.02h-9.088v5.527h11.784v4.22Zm9.087 0H49.23V12.36h4.494v22.812Z"/></g><mask id="d" width="212" height="41" x="0" y="0" maskUnits="userSpaceOnUse" style="mask-type:luminance"><path fill="#fff" d="M212 0H0v41h212V0Z"/></mask><g mask="url(#d)"><path fill="#FD433C" d="M55.821 4.321c0 2.412-1.897 4.321-4.294 4.321-2.397 0-4.294-1.91-4.294-4.32C47.233 1.908 49.131 0 51.527 0c2.397 0 4.294 1.91 4.294 4.321Z"/></g><mask id="e" width="212" height="41" x="0" y="0" maskUnits="userSpaceOnUse" style="mask-type:luminance"><path fill="#fff" d="M212 0H0v41h212V0Z"/></mask><g mask="url(#e)"><path fill="#00234A" d="M81.984 20.701c-.4-2.11-2.197-3.316-4.194-3.316-2.097 0-3.495 1.005-3.495 2.512 0 1.809 2.397 2.412 4.793 3.115 2.696.905 5.992 2.211 5.992 5.728 0 3.216-2.796 5.628-6.99 5.628-3.995 0-6.591-2.312-7.39-5.628l2.796-.804c.3 2.01 1.997 3.718 4.693 3.718 2.397 0 3.795-1.206 3.795-2.813 0-2.312-2.896-2.814-5.592-3.718-2.197-.804-5.193-1.81-5.193-5.126 0-2.914 2.796-5.325 6.69-5.325 3.496 0 6.192 2.11 6.891 5.125l-2.796.904Z"/></g><mask id="f" width="212" height="41" x="0" y="0" maskUnits="userSpaceOnUse" style="mask-type:luminance"><path fill="#fff" d="M212 0H0v41h212V0Z"/></mask><g mask="url(#f)"><path fill="#00234A" d="m106.949 15.274-7.29 9.848v8.944h-2.996v-8.944l-7.19-9.948h3.396l4.293 5.828a23.43 23.43 0 0 0 1.099 1.407s.6-.804 1.098-1.407l4.294-5.828h3.296v.1Z"/></g><mask id="g" width="212" height="41" x="0" y="0" maskUnits="userSpaceOnUse" style="mask-type:luminance"><path fill="#fff" d="M212 0H0v41h212V0Z"/></mask><g mask="url(#g)"><path fill="#00234A" d="M122.427 20.701c-.4-2.11-2.197-3.316-4.194-3.316-2.097 0-3.495 1.005-3.495 2.512 0 1.809 2.396 2.412 4.793 3.115 2.696.905 5.991 2.211 5.991 5.728 0 3.216-2.796 5.628-6.99 5.628-3.994 0-6.59-2.312-7.389-5.628l2.796-.804c.299 2.01 1.997 3.718 4.693 3.718 2.397 0 3.795-1.206 3.795-2.813 0-2.312-2.896-2.814-5.592-3.718-2.197-.804-5.193-1.81-5.193-5.126 0-2.914 2.796-5.325 6.691-5.325 3.495 0 6.191 2.11 6.89 5.125l-2.796.904Z"/></g><mask id="h" width="212" height="41" x="0" y="0" maskUnits="userSpaceOnUse" style="mask-type:luminance"><path fill="#fff" d="M212 0H0v41h212V0Z"/></mask><g mask="url(#h)"><path fill="#00234A" d="M145.394 15.274v2.814h-6.091v15.978h-2.896V18.088h-6.091v-2.814h15.078Z"/></g><mask id="i" width="212" height="41" x="0" y="0" maskUnits="userSpaceOnUse" style="mask-type:luminance"><path fill="#fff" d="M212 0H0v41h212V0Z"/></mask><g mask="url(#i)"><path fill="#00234A" d="M165.066 31.353v2.713h-12.981V15.274h12.882v2.814h-9.986v4.824h7.889v2.713h-7.889v5.728h10.085Z"/></g><mask id="j" width="212" height="41" x="0" y="0" maskUnits="userSpaceOnUse" style="mask-type:luminance"><path fill="#fff" d="M212 0H0v41h212V0Z"/></mask><g mask="url(#j)"><path fill="#00234A" d="M190.73 15.274v18.893h-2.896V26.93c0-3.416.2-6.632.1-6.632 0 0-1.198 2.01-1.698 2.814l-3.594 6.33h-1.598l-3.595-6.33c-.499-.905-1.598-2.814-1.598-2.814s.1 3.216.1 6.632v7.236h-2.896V15.274h2.796l4.294 7.236c1.598 2.613 1.798 3.215 1.897 3.215 0 0 .3-.602 1.798-3.215l4.294-7.236h2.596Z"/></g><mask id="k" width="212" height="41" x="0" y="0" maskUnits="userSpaceOnUse" style="mask-type:luminance"><path fill="#fff" d="M212 0H0v41h212V0Z"/></mask><g mask="url(#k)"><path fill="#00234A" d="M209.004 20.701c-.399-2.11-2.197-3.316-4.194-3.316-2.097 0-3.495 1.005-3.495 2.512 0 1.809 2.397 2.412 4.793 3.115 2.697.905 5.992 2.211 5.992 5.728 0 3.216-2.796 5.628-6.99 5.628-3.995 0-6.591-2.312-7.39-5.628l2.796-.804c.3 2.01 1.997 3.718 4.694 3.718 2.396 0 3.794-1.206 3.794-2.813 0-2.312-2.896-2.814-5.592-3.718-2.197-.804-5.192-1.81-5.192-5.126 0-2.914 2.796-5.325 6.69-5.325 3.495 0 6.191 2.11 6.89 5.125l-2.796.904Z"/></g></g><defs><clipPath id="a"><path fill="#fff" d="M0 0h212v41H0z"/></clipPath></defs></svg>